# xmcd CD database file
#
# Track frame offsets:
#	150
#	15533
#	29787
#	45931
#	57993
#	84683
#	99039
#	116049
#	131397
#
# Disc length: 2094 seconds
#
# Revision: 0
# Processed by: cddbd v1.5.2PL0 Copyright (c) Steve Scherf et al.
# Submitted via: CDex 1.51
#
DISCID=6a082c09
DTITLE=Bo Diddley - Where It All Began
DYEAR=1900
DGENRE=Blues
TTITLE0=I've Had It Hard
TTITLE1=Woman
TTITLE2=Look At Grandma
TTITLE3=A Good Thing
TTITLE4=Bad Trip
TTITLE5=Hey, Jerome
TTITLE6=Infatuation
TTITLE7=Take It All Off
TTITLE8=Bo Diddley-Itis
EXTD=
EXTT0=
EXTT1=
EXTT2=
EXTT3=
EXTT4=
EXTT5=
EXTT6=
EXTT7=
EXTT8=
PLAYORDER=
